<svg width="17" height="9" viewBox="0 0 17 9" fill="none" xmlns="http://www.w3.org/2000/svg">
<path fill-rule="evenodd" clip-rule="evenodd" d="M2.13018 3.87955L2.12894 3.88082L2.12871 3.86202C2.12356 3.79825 2.12094 3.73273 2.12094 3.66542C2.12094 3.61979 2.12218 3.57428 2.12463 3.52895C2.11602 2.64094 2.73579 1.88077 3.47904 1.46212C4.53994 0.864534 5.81516 0.901733 6.94795 1.26049C7.19529 1.22333 7.44416 1.19535 7.69336 1.17434C8.34011 1.11979 9.0037 1.10801 9.65206 1.141C9.89822 1.15353 10.1471 1.17241 10.3913 1.20637C10.5241 1.22484 10.6964 1.25101 10.8272 1.30012C11.6474 1.28053 12.5525 1.31325 13.3419 1.5501C13.8878 1.7139 14.3201 1.95938 14.7544 2.32459C14.87 2.42183 14.9818 2.52347 15.0924 2.62638C15.6859 2.68153 16.3149 2.9052 16.5651 3.49421C16.6014 3.57955 16.6274 3.66829 16.644 3.75896C16.9181 4.31828 16.8974 5.24832 16.6975 5.8167C16.551 5.77776 16.2601 5.7095 16.1091 5.68903L16.0798 5.69108L16.0792 5.68509C15.5799 5.62129 15.0633 5.65146 14.5739 5.73626C13.8527 5.86123 13.1404 6.11138 12.4858 6.43982C12.4837 6.46337 12.4814 6.48682 12.4786 6.51018C12.4403 7.00797 12.2297 7.45155 11.865 7.80531C11.7679 7.89955 11.6612 7.98568 11.5473 8.06313C11.4461 8.13339 11.338 8.19622 11.2236 8.25075C11.1665 8.2787 11.1083 8.30474 11.0493 8.32881C10.9567 8.36857 10.8629 8.40542 10.7664 8.43416C10.6656 8.46415 10.5647 8.48396 10.4625 8.49755C10.2589 8.53304 10.0533 8.54564 9.85323 8.53346C9.64551 8.53729 9.43687 8.53599 9.23105 8.53599H8.69369C8.6882 8.53599 8.68272 8.53599 8.67724 8.53599L8.4861 8.53658L8.48628 8.53599C8.21595 8.53599 7.94565 8.53599 7.67534 8.53599H6.03884L6.07056 8.23504C5.47172 8.54869 4.77652 8.67151 4.10601 8.67151C3.98398 8.67151 3.85892 8.66531 3.73381 8.65556C3.56101 8.64503 3.38887 8.6267 3.21836 8.6011C3.21377 8.60052 3.2092 8.59996 3.20462 8.59938C2.53238 8.51793 1.83894 8.38401 1.1951 8.17264L1 8.11372L2.41007 6.20502L2.51462 6.24761C2.72619 6.33383 2.93941 6.41431 3.15761 6.47849C3.56455 6.5788 4.02189 6.64864 4.44127 6.60767C4.62107 6.5901 4.88089 6.53965 5.02887 6.42185C5.05829 6.38316 5.08196 6.32689 5.08852 6.27129C5.0905 6.23424 5.08834 6.19413 5.07347 6.16318C5.06749 6.15075 5.05895 6.13898 5.0487 6.12792C5.04658 6.12592 5.04438 6.12402 5.04209 6.12223C4.95598 6.05506 4.82923 5.99797 4.70433 5.95155C4.62911 5.92441 4.55254 5.89979 4.47969 5.87621C4.4762 5.87514 4.47275 5.87406 4.46933 5.873L4.07973 5.75285L4.08884 5.74916L4.06111 5.74014C3.91574 5.69287 3.7659 5.65411 3.62206 5.6035C2.77325 5.30486 2.20811 4.76017 2.13018 3.87955ZM8.63587 5.68784L8.52065 6.80735H9.24403C9.3847 6.80735 9.52699 6.80801 9.66707 6.79404C9.73989 6.78679 9.81048 6.77443 9.87868 6.74699C9.8981 6.73917 9.91714 6.73036 9.93587 6.721C10.1355 6.6212 10.259 6.42254 10.259 6.19922C10.259 6.07654 10.2285 5.96376 10.1383 5.87671C9.97298 5.71701 9.6587 5.68784 9.43764 5.68784H8.63587ZM8.89763 2.9571L8.79131 4.02832H9.31184C9.39152 4.02832 9.47143 4.02456 9.55064 4.01576C9.9027 3.97662 10.2395 3.84695 10.2395 3.43941C10.2395 3.3232 10.2112 3.2156 10.1257 3.13304C9.97209 2.98473 9.68163 2.9571 9.47643 2.9571H8.89763ZM6.68656 3.05727C6.56268 3.02135 6.43924 2.98397 6.3154 2.94789C6.19835 2.9138 6.08054 2.88122 5.96089 2.8574C5.79989 2.82534 5.63864 2.81185 5.47459 2.81185C5.16124 2.81185 4.62712 2.8873 4.49598 3.22601C4.47792 3.27266 4.46938 3.32173 4.46938 3.3717C4.46938 3.41785 4.47587 3.46404 4.49585 3.50605C4.57187 3.66583 4.87402 3.7605 5.02689 3.80932L5.451 3.93461C5.57328 3.96799 5.6909 4.014 5.81175 4.05147C5.97588 4.09509 6.13394 4.14872 6.28813 4.22026C6.37793 4.25585 6.46599 4.29616 6.55117 4.34178L6.68656 3.05727Z" fill="#373435" stroke="#373435" stroke-width="0.288" stroke-miterlimit="22.9256"/>
<path d="M9.23104 8.39059C10.4801 8.39059 10.5963 8.37127 11.1192 8.13887C11.8842 7.79028 12.349 7.06404 12.349 6.24094C12.349 5.40824 11.9326 4.93373 11.0902 4.81753C11.8552 4.5754 12.3102 3.92671 12.3102 3.08417C12.3102 2.12554 11.7195 1.54455 10.7125 1.43808C10.4898 1.40904 10.1897 1.40904 9.90877 1.40904H6.93613C6.52097 1.29318 5.87972 1.14941 5.44226 1.14941C3.54433 1.14941 2.26616 2.23214 2.26616 3.66527C2.26616 4.53676 2.73095 5.13707 3.67024 5.46634C3.77673 5.50499 3.96074 5.55347 4.10599 5.60186L4.49324 5.72777C5.10328 5.93112 5.2667 6.01073 5.22919 6.32809C5.19134 6.64821 4.69235 6.80648 4.06756 6.77617C3.51151 6.74919 3.09349 6.64019 2.45979 6.38195L1.23926 8.03411C1.75242 8.18907 2.27439 8.29831 2.63385 8.36509C3.04764 8.44195 3.72834 8.52611 4.10599 8.52611C4.96337 8.52611 5.69533 8.32291 6.24508 7.96467L6.20017 8.39059H9.23104ZM6.77337 2.95298L6.61061 4.49694C6.49694 4.42533 6.36919 4.3614 6.22659 4.30436C6.08135 4.23653 5.9457 4.18816 5.7618 4.13968C5.60683 4.09129 5.50996 4.05253 5.40349 4.02348L4.97747 3.89767C4.52228 3.75242 4.348 3.62651 4.348 3.36505C4.348 2.96797 4.78372 2.70653 5.45187 2.70653C5.9457 2.70653 6.18954 2.81403 6.77064 2.97862L6.77337 2.95298ZM9.45371 2.85178C10.025 2.85178 10.3154 3.04551 10.3154 3.43277C10.3154 3.88795 9.94753 4.12034 9.28912 4.12034H8.65965L8.78556 2.85178H9.45371ZM9.41492 5.58252C10.025 5.58252 10.3349 5.78587 10.3349 6.19257C10.3349 6.45402 10.1897 6.6864 9.95726 6.8026C9.80229 6.88003 9.67637 6.89936 9.2213 6.89936H8.38859L8.52413 5.58252H9.41492Z" fill="#7A8B99" stroke="#373435" stroke-width="0.288" stroke-miterlimit="22.9256"/>
<path fill-rule="evenodd" clip-rule="evenodd" d="M16.2095 5.53637C16.4012 5.52292 16.5615 5.54355 16.6419 5.65063C16.781 5.01154 16.7282 4.74204 16.6368 4.36816C16.6385 4.85631 16.6973 5.46867 16.2095 5.53637Z" fill="#314863"/>
<path fill-rule="evenodd" clip-rule="evenodd" d="M3.23597 8.4571C2.67127 8.38926 1.92221 8.25883 1.23926 8.0345L1.59027 7.55935C2.0638 7.22812 2.57904 6.91428 3.11517 6.61785C4.24042 6.89664 4.89133 6.72899 5.13255 6.52483C5.26956 6.36296 5.269 6.11528 5.13139 6.00794C5.00493 5.90929 4.79454 5.82157 4.51211 5.73446L8.79433 3.9979L8.79129 4.02854H9.31182C9.3915 4.02854 9.47141 4.02479 9.55062 4.01599C9.90148 3.97699 10.2371 3.84804 10.2394 3.44378C10.8736 3.25076 11.6304 3.08073 12.5159 3.07266C11.5814 2.90972 10.3938 2.75798 8.75433 2.79911C10.4329 2.37238 11.3579 2.35373 12.2481 2.28367C11.8028 2.1237 10.9192 1.88528 10.3496 1.81543C10.9338 1.72045 14.0982 1.32903 14.8216 2.90937C16.0417 2.87175 17.0811 3.82123 16.5206 5.40331C15.5256 4.47723 12.8769 5.0259 10.1654 5.90596C10.157 5.896 10.148 5.88632 10.1383 5.87694C9.97296 5.71724 9.65868 5.68806 9.43763 5.68806H8.63585L8.5564 6.46005C6.26155 7.28962 4.15274 8.19617 3.23597 8.4571Z" fill="#FEFEFE"/>
<path fill-rule="evenodd" clip-rule="evenodd" d="M9.38718 4.56631C6.95201 5.80506 4.86894 7.22967 3.23584 8.45699C4.59362 8.66172 5.68124 8.34094 6.24491 7.96518L6.20004 8.39086H7.67519C8.26768 7.78905 8.84197 7.26351 9.39949 6.80697C9.34752 6.80755 9.29558 6.80746 9.24387 6.80746H8.52049L8.63571 5.68795H9.43749C9.65855 5.68795 9.97283 5.71713 10.1382 5.87683C10.2158 5.95183 10.2492 6.04593 10.257 6.14902C11.2834 5.41498 12.2517 4.91722 13.1711 4.60802C12.2773 5.12405 11.5421 5.62597 11.1678 6.09564C12.7355 5.02292 15.6633 4.08889 16.5237 5.4283C16.4179 4.58334 15.8276 3.94674 14.2562 3.73214C14.6944 3.73279 15.1395 3.74988 15.7169 3.98239C15.2913 3.65816 14.4245 3.3943 13.8249 3.48189C13.5995 3.5148 13.431 3.364 13.2963 3.16211C12.3076 3.20699 11.3264 3.44589 10.3471 3.73214C11.1638 3.60759 11.9794 3.48493 12.7398 3.45407C11.2329 3.73694 10.2901 4.10701 9.38718 4.56631Z" fill="#ADBAC9"/>
<path fill-rule="evenodd" clip-rule="evenodd" d="M12.516 3.0723C11.7817 2.91547 10.2886 2.54869 8.75439 2.79876L9.52682 2.82745C10.491 2.86326 10.3089 3.37334 10.3002 3.58475C11.0124 3.35237 11.3767 3.13767 12.516 3.0723Z" fill="#2D3A49"/>
<path fill-rule="evenodd" clip-rule="evenodd" d="M13.4065 3.04513C13.3065 2.83433 12.991 2.89946 12.6553 2.94086C12.9996 2.77589 13.3556 2.57625 13.7682 2.81574C14.1807 3.05521 14.3384 3.21972 14.6724 3.23282C14.1647 3.50952 13.6807 3.62301 13.4065 3.04513Z" fill="#373435"/>
<path fill-rule="evenodd" clip-rule="evenodd" d="M16.5238 5.42783C15.8781 4.04442 12.7947 4.00679 10.1217 5.86121C10.1274 5.86612 10.1329 5.87118 10.1383 5.87636C10.2284 5.9634 10.2589 6.07619 10.2589 6.19887C10.2589 6.42219 10.1355 6.62085 9.93582 6.72064C9.91709 6.73 9.89805 6.73882 9.87863 6.74664C9.81043 6.77408 9.73984 6.78643 9.66702 6.79369C9.52694 6.80766 9.38465 6.80699 9.24397 6.80699H8.97472C8.50579 7.26362 8.06628 7.79016 7.67529 8.3904C8.00749 8.3904 8.36143 8.3904 8.69363 8.3904C10.8191 6.13348 14.927 4.2229 16.5238 5.42783Z" fill="#19232E"/>
<path fill-rule="evenodd" clip-rule="evenodd" d="M16.6423 5.65046C15.4027 2.64293 9.2392 6.39759 8.67822 8.39058L9.84174 8.38698C10.9243 8.46287 12.3347 7.75278 12.3399 6.35098C13.7595 5.61974 15.3778 5.29443 16.6423 5.65046Z" fill="#222F3E"/>
<path fill-rule="evenodd" clip-rule="evenodd" d="M10.8007 1.44593C10.4085 1.27769 8.51496 1.16623 6.93588 1.40908C4.14642 0.508194 2.25188 2.08093 2.26966 3.53184C3.4062 2.38377 6.78827 1.50598 10.376 1.82301C11.8086 1.56562 13.952 1.62573 14.8213 2.90902C15.6874 2.94889 16.2659 3.28228 16.5503 3.90749C16.5112 3.30053 16.0195 2.84309 15.0298 2.76672C14.1936 1.98514 13.4352 1.37883 10.8007 1.44593Z" fill="#FF000D"/>
<path fill-rule="evenodd" clip-rule="evenodd" d="M12.2482 2.2834C11.9918 2.17949 11.7286 2.08924 11.4444 2.04102L8.75439 2.79884C9.75126 2.52766 11.1759 2.35369 12.2482 2.2834Z" fill="#2D3A49"/>
<path fill-rule="evenodd" clip-rule="evenodd" d="M6.85769 2.94132L6.68238 4.60462L6.60146 4.55364C6.48323 4.47918 6.3567 4.41784 6.22707 4.36598L6.2255 4.36536L6.22398 4.36465C6.07538 4.29525 5.92792 4.24543 5.7692 4.20358L5.76791 4.20324L5.76664 4.20284C5.64807 4.16583 5.52975 4.11982 5.4092 4.08692L4.98195 3.96073C4.77083 3.89336 4.45585 3.79019 4.35285 3.57368C4.32252 3.50992 4.31104 3.4416 4.31104 3.37139C4.31104 3.30181 4.32317 3.23351 4.34831 3.16858C4.50881 2.75404 5.08694 2.65332 5.47445 2.65332C5.65013 2.65332 5.81928 2.6676 5.99164 2.70192C6.11584 2.72664 6.23799 2.76028 6.35951 2.79568C6.5096 2.83939 6.65902 2.88505 6.80944 2.92765L6.85769 2.94132ZM6.68642 3.05695C6.56254 3.02103 6.4391 2.98365 6.31526 2.94758C6.19821 2.91348 6.0804 2.8809 5.96075 2.85708C5.79976 2.82503 5.6385 2.81153 5.47445 2.81153C5.1611 2.81153 4.62698 2.88698 4.49584 3.2257C4.47779 3.27234 4.46924 3.32142 4.46924 3.37139C4.46924 3.41754 4.47573 3.46372 4.49571 3.50573C4.57173 3.66552 4.87389 3.76018 5.02676 3.809L5.45086 3.9343C5.57314 3.96767 5.69076 4.01368 5.81161 4.05115C5.97574 4.09478 6.1338 4.14841 6.28799 4.21995C6.3778 4.25553 6.46586 4.29584 6.55103 4.34147L6.68642 3.05695Z" fill="#19232E"/>
<path fill-rule="evenodd" clip-rule="evenodd" d="M9.47651 2.79883C9.91322 2.79883 10.3978 2.91424 10.3978 3.43935C10.3978 4.0472 9.80789 4.18647 9.31192 4.18647H8.6167L8.75443 2.79883H9.47651ZM8.89771 2.95704L8.79139 4.02826H9.31192C9.3916 4.02826 9.47151 4.0245 9.55072 4.0157C9.90278 3.97656 10.2396 3.84689 10.2396 3.43935C10.2396 3.32314 10.2113 3.21554 10.1258 3.13298C9.97217 2.98467 9.68171 2.95704 9.47651 2.95704H8.89771Z" fill="#19232E"/>
<path fill-rule="evenodd" clip-rule="evenodd" d="M9.43753 5.5293C9.88993 5.5293 10.4171 5.64286 10.4171 6.19889C10.4171 6.48218 10.2597 6.73561 10.0065 6.86218C9.98393 6.87346 9.96102 6.88401 9.93761 6.89344C9.8546 6.92683 9.77139 6.9423 9.68267 6.95114C9.53891 6.96548 9.38832 6.96522 9.24391 6.96522H8.34521L8.493 5.5293H9.43753ZM8.63576 5.68751L8.52053 6.80702H9.24391C9.38459 6.80702 9.52687 6.80768 9.66696 6.79372C9.73978 6.78646 9.81037 6.7741 9.87857 6.74667C9.89799 6.73884 9.91703 6.73003 9.93576 6.72067C10.1354 6.62087 10.2588 6.42221 10.2588 6.19889C10.2588 6.07621 10.2284 5.96343 10.1382 5.87638C9.97287 5.71669 9.65859 5.68751 9.43753 5.68751H8.63576Z" fill="#19232E"/>
</svg>
