<svg width="208" height="36" viewBox="0 0 208 36" fill="none" xmlns="http://www.w3.org/2000/svg">
<g clip-path="url(#clip0_404_2)">
<path fill-rule="evenodd" clip-rule="evenodd" d="M5.56388 12.6282L5.55886 12.6333L5.55795 12.5574C5.53714 12.2999 5.52655 12.0353 5.52655 11.7635C5.52655 11.5792 5.53157 11.3954 5.54148 11.2124C5.50668 7.62642 8.00946 4.55673 11.0108 2.86612C15.2949 0.452965 20.4445 0.603178 25.0189 2.0519C26.0177 1.90184 27.0227 1.78888 28.029 1.704C30.6408 1.48372 33.3204 1.43616 35.9386 1.56939C36.9327 1.61998 37.9378 1.69622 38.9239 1.83335C39.4601 1.90793 40.1561 2.01363 40.6839 2.21195C43.9964 2.13283 47.6512 2.26495 50.8391 3.22141C53.0435 3.88284 54.7891 4.87414 56.5427 6.34893C57.0096 6.74162 57.4611 7.15205 57.9077 7.56761C60.3044 7.79034 62.8446 8.69355 63.8549 11.0721C64.0013 11.4167 64.1063 11.7751 64.1733 12.1412C65.2804 14.3998 65.1965 18.1555 64.3893 20.4507C63.798 20.2935 62.6232 20.0178 62.0134 19.9352L61.8951 19.9435L61.8926 19.9193C59.8762 19.6616 57.7901 19.7835 55.8138 20.1259C52.9016 20.6305 50.025 21.6407 47.3817 22.967C47.3735 23.0621 47.3639 23.1568 47.3528 23.2511C47.1982 25.2613 46.3474 27.0525 44.8751 28.4811C44.4828 28.8617 44.0521 29.2095 43.5921 29.5223C43.1835 29.806 42.7468 30.0597 42.2846 30.2799C42.0542 30.3928 41.8193 30.4979 41.5809 30.5951C41.2072 30.7557 40.8282 30.9045 40.4384 31.0205C40.0317 31.1416 39.6239 31.2216 39.2115 31.2765C38.3891 31.4198 37.559 31.4707 36.751 31.4215C35.9122 31.437 35.0697 31.4317 34.2385 31.4317H32.0685C32.0464 31.4317 32.0243 31.4317 32.0021 31.4317L31.2303 31.4341L31.231 31.4317C30.1394 31.4317 29.0478 31.4317 27.9563 31.4317H21.3478L21.4759 30.2164C19.0577 31.483 16.2503 31.979 13.5427 31.979C13.0499 31.979 12.5449 31.9539 12.0396 31.9146C11.3419 31.872 10.6467 31.798 9.95815 31.6947C9.93962 31.6923 9.92118 31.69 9.90265 31.6877C7.18805 31.3588 4.38781 30.818 1.78783 29.9644L1 29.7265L6.69412 22.0188L7.11632 22.1908C7.97067 22.539 8.83169 22.864 9.71282 23.1232C11.3561 23.5282 13.2029 23.8102 14.8965 23.6448C15.6226 23.5739 16.6718 23.3702 17.2693 22.8944C17.3881 22.7382 17.4837 22.511 17.5102 22.2864C17.5182 22.1369 17.5095 21.9749 17.4494 21.8499C17.4253 21.7997 17.3908 21.7521 17.3494 21.7075C17.3409 21.6994 17.332 21.6917 17.3227 21.6845C16.975 21.4133 16.4631 21.1827 15.9588 20.9953C15.655 20.8857 15.3458 20.7862 15.0516 20.6911C15.0376 20.6867 15.0236 20.6824 15.0098 20.6781L13.4365 20.1929L13.4733 20.178L13.3613 20.1416C12.7743 19.9507 12.1692 19.7942 11.5884 19.5898C8.1607 18.3838 5.87856 16.1843 5.56388 12.6282ZM31.8351 19.9304L31.3698 24.4511H34.2909C34.859 24.4511 35.4336 24.4538 35.9993 24.3974C36.2933 24.3681 36.5784 24.3182 36.8538 24.2074C36.9322 24.1758 37.0091 24.1402 37.0847 24.1024C37.8909 23.6994 38.3894 22.8972 38.3894 21.9954C38.3894 21.5 38.2663 21.0446 37.9023 20.6931C37.2346 20.0482 35.9654 19.9304 35.0728 19.9304H31.8351ZM32.8921 8.90313L32.4628 13.2289H34.5648C34.8865 13.2289 35.2092 13.2137 35.5291 13.1782C36.9508 13.0202 38.3109 12.4965 38.3109 10.8508C38.3109 10.3815 38.1965 9.94699 37.8513 9.61362C37.231 9.01471 36.058 8.90313 35.2294 8.90313H32.8921ZM23.9634 9.30763C23.4631 9.16259 22.9647 9.01163 22.4646 8.86596C21.9919 8.72827 21.5162 8.5967 21.033 8.50052C20.3829 8.37108 19.7317 8.31658 19.0692 8.31658C17.8039 8.31658 15.647 8.62127 15.1174 9.98905C15.0445 10.1774 15.01 10.3756 15.01 10.5774C15.01 10.7637 15.0362 10.9502 15.1169 11.1199C15.4239 11.7651 16.644 12.1474 17.2614 12.3445L18.974 12.8505C19.4678 12.9853 19.9427 13.1711 20.4307 13.3224C21.0935 13.4986 21.7318 13.7151 22.3545 14.004C22.7171 14.1477 23.0727 14.3105 23.4167 14.4947L23.9634 9.30763Z" fill="#373435" stroke="#373435" stroke-width="0.288" stroke-miterlimit="22.9256"/>
<path d="M34.2381 30.8457C39.2822 30.8457 39.7515 30.7677 41.863 29.8292C44.9522 28.4215 46.8291 25.4889 46.8291 22.165C46.8291 18.8024 45.1476 16.8862 41.7457 16.417C44.8349 15.4393 46.6725 12.8197 46.6725 9.41738C46.6725 5.54627 44.2872 3.20014 40.2207 2.77016C39.321 2.65289 38.1092 2.6529 36.9749 2.6529H24.9708C23.2943 2.18504 20.7049 1.60449 18.9383 1.60449C11.2741 1.60449 6.11263 5.97672 6.11263 11.764C6.11263 15.2832 7.98956 17.7074 11.7826 19.037C12.2126 19.1931 12.9557 19.3889 13.5422 19.5843L15.106 20.0928C17.5694 20.9139 18.2294 21.2354 18.0779 22.5169C17.9251 23.8096 15.91 24.4488 13.387 24.3264C11.1416 24.2174 9.45356 23.7773 6.89454 22.7344L1.96582 29.4062C4.03806 30.0319 6.14589 30.473 7.59746 30.7427C9.2684 31.0531 12.0172 31.393 13.5422 31.393C17.0045 31.393 19.9603 30.5724 22.1802 29.1258L21.9989 30.8457H34.2381ZM24.3136 8.88763L23.6563 15.1224C23.1973 14.8332 22.6814 14.5751 22.1056 14.3448C21.5191 14.0708 20.9713 13.8755 20.2287 13.6797C19.6029 13.4843 19.2117 13.3278 18.7818 13.2105L17.0614 12.7025C15.2233 12.1159 14.5195 11.6074 14.5195 10.5517C14.5195 8.94814 16.279 7.89243 18.9771 7.89243C20.9713 7.89243 21.956 8.32652 24.3026 8.99116L24.3136 8.88763ZM35.1373 8.47898C37.4442 8.47898 38.6172 9.26129 38.6172 10.8251C38.6172 12.6632 37.1314 13.6016 34.4726 13.6016H31.9307L32.4392 8.47898H35.1373ZM34.9807 19.5062C37.4442 19.5062 38.6957 20.3274 38.6957 21.9697C38.6957 23.0255 38.1092 23.9639 37.1707 24.4331C36.5449 24.7458 36.0365 24.8238 34.1988 24.8238H30.8362L31.3835 19.5062H34.9807Z" fill="#7A8B99" stroke="#373435" stroke-width="0.288" stroke-miterlimit="22.9256"/>
<path fill-rule="evenodd" clip-rule="evenodd" d="M62.4194 19.319C63.1937 19.2647 63.841 19.348 64.1657 19.7804C64.7275 17.1996 64.514 16.1113 64.1452 14.6016C64.152 16.5728 64.3896 19.0456 62.4194 19.319Z" fill="#314863"/>
<path fill-rule="evenodd" clip-rule="evenodd" d="M10.0289 31.1117C7.74854 30.8378 4.72371 30.311 1.96582 29.4052L3.38326 27.4864C5.29549 26.1488 7.37611 24.8815 9.54109 23.6845C14.0851 24.8103 16.7136 24.1333 17.6877 23.3088C18.2409 22.6552 18.2387 21.655 17.683 21.2215C17.1723 20.8232 16.3227 20.4689 15.1822 20.1172L32.4746 13.1046L32.4623 13.2284H34.5643C34.8861 13.2284 35.2088 13.2132 35.5286 13.1777C36.9455 13.0202 38.301 12.4995 38.3102 10.867C40.8711 10.0875 43.9274 9.40093 47.503 9.36831C43.7295 8.71035 38.9335 8.09761 32.3131 8.2637C39.0914 6.54047 42.8269 6.46514 46.4215 6.18225C44.6233 5.53626 41.0551 4.57345 38.755 4.29139C41.1143 3.90786 53.8927 2.32722 56.8137 8.70893C61.741 8.55702 65.938 12.3912 63.6747 18.7799C59.6567 15.0402 48.9607 17.2559 38.0113 20.8097C37.9775 20.7695 37.9411 20.7304 37.9019 20.6925C37.2341 20.0476 35.965 19.9298 35.0724 19.9298H31.8346L31.5138 23.0472C22.2468 26.3972 13.731 30.058 10.0289 31.1117Z" fill="#FEFEFE"/>
<path fill-rule="evenodd" clip-rule="evenodd" d="M34.8695 15.4009C25.0359 20.4032 16.6241 26.156 10.0293 31.1122C15.5123 31.9389 19.9043 30.6435 22.1805 29.1262L21.9993 30.8451H27.9562C30.3488 28.4149 32.6679 26.2927 34.9193 24.4491C34.7094 24.4514 34.4997 24.4511 34.2908 24.4511H31.3697L31.835 19.9303H35.0727C35.9654 19.9303 37.2345 20.0481 37.9022 20.693C38.2158 20.9959 38.3506 21.3759 38.3819 21.7922C42.5268 18.828 46.4371 16.8179 50.1497 15.5693C46.5405 17.6532 43.5715 19.68 42.0602 21.5766C48.3906 17.2448 60.2136 13.473 63.6883 18.8818C63.2609 15.4697 60.8772 12.8989 54.5315 12.0324C56.3009 12.035 58.0985 12.104 60.4301 13.0429C58.7115 11.7336 55.2111 10.6681 52.79 11.0218C51.8797 11.1547 51.1994 10.5458 50.6553 9.73047C46.6628 9.91169 42.7006 10.8764 38.7457 12.0324C42.0437 11.5294 45.3374 11.0341 48.4082 10.9095C42.3231 12.0517 38.5155 13.5462 34.8695 15.4009Z" fill="#ADBAC9"/>
<path fill-rule="evenodd" clip-rule="evenodd" d="M47.503 9.36929C44.5377 8.73597 38.5084 7.25487 32.313 8.26468L35.4322 8.38053C39.3256 8.52513 38.5902 10.5849 38.5554 11.4387C41.4312 10.5003 42.9023 9.63326 47.503 9.36929Z" fill="#2D3A49"/>
<path fill-rule="evenodd" clip-rule="evenodd" d="M51.099 9.25697C50.695 8.40574 49.4213 8.66876 48.0654 8.83591C49.4558 8.16973 50.8937 7.36357 52.5596 8.33065C54.2255 9.29769 54.862 9.96201 56.2111 10.0149C54.1607 11.1323 52.2064 11.5906 51.099 9.25697Z" fill="#373435"/>
<path fill-rule="evenodd" clip-rule="evenodd" d="M63.6882 18.8824C61.0806 13.2959 48.6291 13.144 37.8351 20.6325C37.858 20.6523 37.8804 20.6727 37.9021 20.6936C38.266 21.0451 38.3892 21.5006 38.3892 21.996C38.3892 22.8978 37.8906 23.7 37.0845 24.103C37.0088 24.1408 36.932 24.1764 36.8535 24.208C36.5782 24.3188 36.2931 24.3687 35.999 24.398C35.4333 24.4544 34.8587 24.4517 34.2907 24.4517H33.2034C31.3097 26.2957 29.5349 28.4219 27.9561 30.8458C29.2975 30.8458 30.7268 30.8458 32.0683 30.8458C40.6514 21.7319 57.2398 14.0167 63.6882 18.8824Z" fill="#19232E"/>
<path fill-rule="evenodd" clip-rule="evenodd" d="M64.166 19.7796C59.16 7.6346 34.2707 22.7966 32.0054 30.8447L36.7039 30.8301C41.0753 31.1366 46.7709 28.2691 46.792 22.6084C52.5245 19.6555 59.0595 18.3419 64.166 19.7796Z" fill="#222F3E"/>
<path fill-rule="evenodd" clip-rule="evenodd" d="M40.5779 2.80108C38.9943 2.12171 31.3476 1.67159 24.971 2.65229C13.7067 -0.98566 6.05617 5.36532 6.12794 11.2244C10.7175 6.58827 24.375 3.04357 38.8627 4.32383C44.6481 3.28443 53.3036 3.52714 56.8139 8.70933C60.3112 8.87032 62.6473 10.2166 63.7958 12.7413C63.6379 10.2903 61.6524 8.44307 57.6557 8.13467C54.279 4.97851 51.2165 2.53013 40.5779 2.80108Z" fill="#FF000D"/>
<path fill-rule="evenodd" clip-rule="evenodd" d="M46.4214 6.18193C45.3862 5.7623 44.3233 5.39785 43.1756 5.20312L32.313 8.26338C36.3385 7.16829 42.0914 6.46577 46.4214 6.18193Z" fill="#2D3A49"/>
<path fill-rule="evenodd" clip-rule="evenodd" d="M24.6555 8.8417L23.9475 15.5584L23.6208 15.3526C23.1433 15.0519 22.6323 14.8042 22.1089 14.5948L22.1026 14.5923L22.0964 14.5894C21.4963 14.3091 20.9009 14.1079 20.2599 13.939L20.2547 13.9376L20.2496 13.936C19.7708 13.7865 19.293 13.6007 18.8062 13.4679L17.0809 12.9583C16.2283 12.6862 14.9564 12.2696 14.5404 11.3953C14.418 11.1378 14.3716 10.8619 14.3716 10.5784C14.3716 10.2975 14.4206 10.0216 14.5221 9.75944C15.1702 8.08543 17.5048 7.67871 19.0697 7.67871C19.7791 7.67871 20.4622 7.73638 21.1582 7.87498C21.6597 7.97479 22.153 8.11063 22.6437 8.25357C23.2498 8.43009 23.8532 8.61447 24.4606 8.78652L24.6555 8.8417ZM23.9638 9.30865C23.4636 9.16361 22.9651 9.01265 22.465 8.86698C21.9924 8.72929 21.5166 8.59772 21.0335 8.50154C20.3833 8.3721 19.7321 8.3176 19.0697 8.3176C17.8043 8.3176 15.6474 8.62229 15.1179 9.99007C15.0449 10.1784 15.0104 10.3766 15.0104 10.5784C15.0104 10.7648 15.0367 10.9513 15.1174 11.1209C15.4243 11.7662 16.6445 12.1484 17.2618 12.3456L18.9744 12.8515C19.4682 12.9863 19.9432 13.1721 20.4312 13.3234C21.094 13.4996 21.7323 13.7162 22.3549 14.005C22.7175 14.1487 23.0731 14.3115 23.4171 14.4958L23.9638 9.30865Z" fill="#19232E"/>
<path fill-rule="evenodd" clip-rule="evenodd" d="M35.2294 8.26465C36.9929 8.26465 38.9497 8.73069 38.9497 10.8512C38.9497 13.3058 36.5676 13.8682 34.5647 13.8682H31.7573L32.3135 8.26465H35.2294ZM32.8921 8.90353L32.4628 13.2293H34.5647C34.8865 13.2293 35.2092 13.2141 35.5291 13.1786C36.9508 13.0206 38.3109 12.4969 38.3109 10.8512C38.3109 10.3819 38.1965 9.9474 37.8512 9.61403C37.231 9.01512 36.058 8.90353 35.2294 8.90353H32.8921Z" fill="#19232E"/>
<path fill-rule="evenodd" clip-rule="evenodd" d="M35.0726 19.292C36.8995 19.292 39.0281 19.7506 39.0281 21.9959C39.0281 23.1399 38.3927 24.1633 37.3701 24.6744C37.2791 24.72 37.1866 24.7626 37.092 24.8007C36.7568 24.9355 36.4208 24.998 36.0625 25.0337C35.482 25.0916 34.8739 25.0905 34.2907 25.0905H30.6616L31.2584 19.292H35.0726ZM31.8349 19.9309L31.3696 24.4517H34.2907C34.8588 24.4517 35.4334 24.4544 35.9991 24.3979C36.2931 24.3686 36.5782 24.3187 36.8536 24.208C36.932 24.1764 37.0089 24.1408 37.0845 24.103C37.8907 23.7 38.3892 22.8978 38.3892 21.9959C38.3892 21.5005 38.2661 21.0451 37.9021 20.6936C37.2344 20.0487 35.9653 19.9309 35.0726 19.9309H31.8349Z" fill="#19232E"/>
<path d="M81.493 5.55481L86.8608 22.9588H87.06L92.4278 5.55481H98.9208L90.8222 29.317H83.0986L75 5.55481H81.493Z" fill="white"/>
<path d="M104.485 29.6186C103.336 29.6186 102.317 29.4291 101.426 29.05C100.543 28.6633 99.8439 28.0832 99.3283 27.3096C98.8204 26.5284 98.5664 25.5499 98.5664 24.3742C98.5664 23.3841 98.7422 22.5487 99.0939 21.868C99.4455 21.1873 99.9299 20.6343 100.547 20.2088C101.164 19.7834 101.875 19.4624 102.68 19.2458C103.485 19.0215 104.344 18.8707 105.258 18.7933C106.282 18.7005 107.106 18.6038 107.731 18.5033C108.356 18.395 108.81 18.2441 109.091 18.0508C109.38 17.8496 109.525 17.5673 109.525 17.2038V17.1458C109.525 16.5502 109.318 16.0899 108.903 15.765C108.489 15.4402 107.931 15.2777 107.227 15.2777C106.47 15.2777 105.86 15.4402 105.399 15.765C104.938 16.0899 104.645 16.5386 104.52 17.1109L99.2345 16.9253C99.3908 15.8424 99.7932 14.8755 100.441 14.0247C101.098 13.1661 101.996 12.4931 103.137 12.0058C104.286 11.5108 105.665 11.2632 107.274 11.2632C108.423 11.2632 109.482 11.3986 110.45 11.6693C111.419 11.9323 112.263 12.3191 112.982 12.8296C113.701 13.3324 114.256 13.9512 114.646 14.686C115.045 15.4208 115.244 16.2601 115.244 17.2038V29.3169H109.853V26.8339H109.712C109.392 27.4373 108.982 27.9478 108.481 28.3655C107.989 28.7832 107.407 29.0964 106.735 29.3053C106.071 29.5141 105.321 29.6186 104.485 29.6186ZM106.255 25.9057C106.872 25.9057 107.427 25.782 107.919 25.5344C108.419 25.2869 108.817 24.9466 109.114 24.5134C109.411 24.0725 109.56 23.562 109.56 22.9819V21.2879C109.396 21.373 109.196 21.4503 108.962 21.5199C108.735 21.5896 108.485 21.6553 108.212 21.7172C107.938 21.7791 107.657 21.8332 107.368 21.8796C107.079 21.926 106.802 21.9686 106.536 22.0073C105.997 22.0923 105.536 22.2238 105.153 22.4017C104.778 22.5796 104.489 22.8117 104.286 23.0979C104.09 23.3764 103.993 23.709 103.993 24.0957C103.993 24.6836 104.204 25.1322 104.626 25.4416C105.055 25.751 105.598 25.9057 106.255 25.9057Z" fill="white"/>
<path d="M124.479 5.55481V29.317H118.748V5.55481H124.479Z" fill="white"/>
<path d="M133.296 24.6411L133.319 17.8768H134.116L139.179 11.4954H145.672L138.148 20.6382H136.636L133.296 24.6411ZM128.127 29.317V5.55481H133.858V29.317H128.127ZM139.308 29.317L134.597 21.9145L138.371 17.8884L145.93 29.317H139.308Z" fill="white"/>
<path d="M151.614 36.0001C150.927 36.0001 150.278 35.946 149.669 35.8377C149.059 35.7371 148.536 35.6017 148.098 35.4316L149.364 31.3126C149.927 31.4983 150.435 31.6066 150.888 31.6375C151.349 31.6685 151.743 31.595 152.072 31.4171C152.408 31.2469 152.665 30.9414 152.845 30.5005L153.068 29.9667L146.669 11.4954H152.669L155.986 24.2118H156.174L159.537 11.4954H165.573L158.787 31.0226C158.459 31.9972 157.994 32.8558 157.392 33.5984C156.799 34.3487 156.029 34.9365 155.084 35.362C154.146 35.7874 152.99 36.0001 151.614 36.0001Z" fill="white"/>
<path d="M167.771 29.3169V11.4953H173.338V14.744H173.525C173.853 13.5683 174.389 12.6942 175.131 12.1218C175.873 11.5417 176.737 11.2516 177.721 11.2516C177.987 11.2516 178.26 11.271 178.541 11.3096C178.823 11.3406 179.084 11.3909 179.327 11.4605V16.3916C179.053 16.2988 178.694 16.2253 178.248 16.1711C177.811 16.117 177.42 16.0899 177.076 16.0899C176.397 16.0899 175.783 16.2408 175.236 16.5424C174.697 16.8364 174.271 17.2502 173.959 17.7839C173.654 18.3099 173.502 18.9287 173.502 19.6403V29.3169H167.771Z" fill="white"/>
<path d="M181.662 29.3169V11.4953H187.393V29.3169H181.662ZM184.533 9.41842C183.729 9.41842 183.037 9.15543 182.459 8.62944C181.881 8.09572 181.592 7.45371 181.592 6.70341C181.592 5.96084 181.881 5.32657 182.459 4.80058C183.037 4.26686 183.729 4 184.533 4C185.346 4 186.037 4.26686 186.608 4.80058C187.186 5.32657 187.475 5.96084 187.475 6.70341C187.475 7.45371 187.186 8.09572 186.608 8.62944C186.037 9.15543 185.346 9.41842 184.533 9.41842Z" fill="white"/>
<path d="M199.456 29.6534C197.573 29.6534 195.948 29.286 194.58 28.5511C193.221 27.8086 192.174 26.7527 191.439 25.3836C190.713 24.0068 190.349 22.3708 190.349 20.4757C190.349 18.6348 190.717 17.0259 191.451 15.649C192.186 14.2644 193.221 13.1893 194.557 12.4235C195.893 11.65 197.468 11.2632 199.28 11.2632C200.562 11.2632 201.734 11.4605 202.796 11.855C203.859 12.2495 204.777 12.8335 205.55 13.607C206.324 14.3805 206.926 15.3357 207.355 16.4728C207.785 17.6021 208 18.8978 208 20.3597V21.7752H192.354V18.4801H202.667C202.66 17.8767 202.515 17.3391 202.234 16.8673C201.952 16.3955 201.566 16.028 201.073 15.765C200.589 15.4943 200.03 15.359 199.397 15.359C198.757 15.359 198.182 15.5021 197.675 15.7883C197.167 16.0667 196.764 16.4496 196.467 16.9369C196.17 17.4165 196.014 17.9618 195.999 18.5729V21.926C195.999 22.6531 196.143 23.2913 196.432 23.8405C196.721 24.3819 197.132 24.8035 197.663 25.1051C198.194 25.4068 198.827 25.5576 199.562 25.5576C200.069 25.5576 200.53 25.488 200.944 25.3488C201.359 25.2096 201.714 25.0046 202.011 24.7339C202.308 24.4631 202.531 24.1305 202.679 23.736L207.941 23.8869C207.723 25.0549 207.242 26.072 206.5 26.9384C205.765 27.797 204.8 28.466 203.605 28.9456C202.41 29.4175 201.027 29.6534 199.456 29.6534Z" fill="white"/>
</g>
<defs>
<clipPath id="clip0_404_2">
<rect width="208" height="36" fill="white"/>
</clipPath>
</defs>
</svg>
