<svg width="433" height="112" viewBox="0 0 433 112" fill="none" xmlns="http://www.w3.org/2000/svg">
<path d="M17 36H35.766L36.6596 37.6979L44.1064 57.3447L48.5745 69.2298L51.2553 76.5064L51.5532 77.4766L52.1489 77.7191L53.0426 75.0511L60.1915 56.1319L66.1489 40.1234L67.6383 36.2426L67.9362 36H87L83.4255 44.9745L79.2553 54.9191L72.1064 72.1404L63.4681 92.7574L61.9787 93H41.1277L40.234 92.5149L33.0851 75.2936L28.0213 63.166L23.8511 53.2213L18.7872 41.0936L17 36.7277V36Z" fill="white"/>
<path d="M183.537 16.4619H200.993L201.311 16.7793V55.1826L203.215 53.5957L207.341 48.2002L211.467 43.1221L214.641 38.9961L217.814 35.1875L229.24 34.8701H237.81V35.8223L234.001 40.2656L230.51 44.709L227.019 48.835L224.479 52.0088L220.036 57.4043L218.449 59.626L228.605 74.8604L232.731 81.208L238.762 90.4121L238.127 91.0469H218.449L215.91 87.5557L212.419 81.8428L207.976 74.8604L205.119 70.417H204.484L201.628 73.9082L201.311 90.7295L199.724 91.0469H183.537L183.22 89.1426V16.7793L183.537 16.4619Z" fill="white"/>
<path d="M258.757 34.8701L260.026 35.1875L260.979 38.0439L270.183 73.5908V74.8604H271.135L271.77 71.6865L278.435 45.9785L281.291 35.5049L281.608 35.1875L300.017 34.8701L300.334 35.8223L295.573 49.4697L288.591 69.7822L284.147 82.4775L279.069 97.0771L276.53 102.155L273.991 105.646L271.135 108.186L266.691 110.407L262.248 111.677L260.979 111.994H252.727L246.062 110.407L246.379 107.551L249.235 98.3467L249.553 97.3945L251.774 97.7119L255.9 98.0293L258.757 97.0771L260.026 95.4902L260.979 92.9512L257.17 81.5254L252.409 67.5605L244.157 43.7568L241.301 35.8223V35.1875L258.757 34.8701Z" fill="white"/>
<path d="M116.887 34.2354L123.869 34.5527L129.582 35.8223L134.025 37.7266L137.517 40.2656L139.738 42.4873L141.643 45.6611L142.595 47.8828L142.912 49.4697L143.229 54.2305V90.7295L141.96 91.0469H126.726L126.091 90.4121V85.334L126.408 83.4297L124.821 85.0166L121.965 88.1904L118.791 90.0947L115.3 91.3643L110.539 91.999H107.683L103.239 91.3643L98.7959 89.7773L95.3047 87.2383L93.083 84.3818L91.8135 81.8428L91.1787 79.3037L90.8613 74.8604L91.4961 70.0996L92.7656 67.2432L94.6699 64.3867L97.209 62.165L102.287 59.626L107.683 58.3564L120.061 56.7695L123.234 55.8174L124.821 54.2305V51.0566L123.552 48.835L121.33 47.5654L120.061 47.248H115.935L112.443 48.5176L110.539 50.7393L109.587 52.6436H105.144L95.6221 52.3262L93.083 52.0088L93.7178 48.835L95.3047 45.0264L98.1611 41.2178L101.652 38.3613L106.096 36.1396L110.539 34.8701L116.887 34.2354ZM124.504 65.9736L117.839 67.5605L113.396 68.5127L110.539 69.7822L108.952 71.0518L108 73.2734V76.1299L109.587 78.6689L111.809 79.9385L113.078 80.2559H117.204L120.695 78.9863L123.552 76.7646L125.139 73.5908L125.456 71.0518V65.9736H124.504Z" fill="white"/>
<path d="M404.753 34.2354L410.783 34.5527L415.227 35.5049L419.035 37.0918L422.844 39.3135L426.335 42.4873L429.191 46.6133L431.413 51.6914L432.683 56.4521L433 58.3564V67.2432L395.549 67.5605L396.184 71.6865L398.088 75.4951L400.31 77.3994L403.483 78.6689L407.609 78.9863L411.735 78.0342L414.592 76.1299L416.179 73.5908H425.7L432.683 73.9082L433 74.543L431.096 79.3037L429.191 82.4775L426.335 85.6514L422.844 88.1904L418.718 90.0947L414.274 91.3643L409.514 91.999H402.849L397.136 91.0469L393.327 89.7773L388.566 87.2383L384.44 83.4297L381.901 79.9385L379.68 75.4951L378.41 71.0518L377.775 65.9736V60.5781L378.41 55.5L379.997 50.4219L382.536 45.6611L385.393 42.1699L388.566 39.3135L393.01 36.7744L397.453 35.1875L400.627 34.5527L404.753 34.2354ZM403.801 47.248L400.31 48.5176L397.453 51.0566L395.866 54.2305L395.231 56.7695L396.184 57.0869H415.861L416.496 56.4521L415.544 52.9609L413.957 50.4219L411.735 48.5176L408.244 47.248H403.801Z" fill="#FDFDFD"/>
<path d="M154.021 16.4619H171.794L172.111 16.7793V90.7295L171.477 91.0469H154.338L154.021 90.7295V16.4619Z" fill="white"/>
<path d="M335.881 34.2354H341.276L343.181 34.8701L343.498 36.457V50.1045L342.863 50.4219L339.055 49.7871H333.977L330.485 51.0566L327.312 53.9131L325.725 57.0869L325.407 59.626L325.09 90.7295L324.772 91.0469H307.634L307.316 90.7295V35.1875H324.455L324.772 35.5049V41.8525L324.455 45.0264H325.407L326.359 41.8525L328.264 38.9961L329.851 37.4092L333.024 35.1875L335.881 34.2354Z" fill="white"/>
<path d="M350.798 34.8701L368.571 35.1875V90.7295L366.032 91.0469H350.798L350.48 89.46V35.1875L350.798 34.8701Z" fill="white"/>
<path d="M350.179 0C349.159 1.01562 348.302 2.20541 347.635 3.52205L354.635 9.51522L353.876 10.2532L347.178 4.51898C346.633 5.83275 346.266 7.25164 346.101 8.73504L352.997 11.9153L352.496 12.8191L346.015 9.83011C345.958 11.1543 346.061 12.52 346.338 13.9005L352.307 14.3508L352.216 15.3595L346.577 14.9347C346.621 15.102 346.667 15.2697 346.716 15.4373C346.98 16.3315 347.307 17.1888 347.689 18.0065C348.209 17.9191 348.746 17.8292 349.34 17.7272C350.928 17.4546 352.492 17.1824 352.492 17.1824L352.7 18.1758C352.7 18.1758 351.134 18.4495 349.544 18.7225C349.068 18.8042 348.606 18.8833 348.167 18.9578C348.681 19.9059 349.273 20.7931 349.928 21.6116L353.54 19.755L354.084 20.6367L350.617 22.4207C351.341 23.2217 352.129 23.9472 352.969 24.5871L353.988 23.4852C354.07 22.3729 354.282 21.442 354.841 20.6841C355.217 20.1736 355.758 19.7728 356.453 19.496C355.963 18.8015 355.573 18.0164 355.318 17.1485C354.456 14.2157 355.352 11.2726 357.479 9.66925L350.179 0ZM369.821 0L362.521 9.66925C364.648 11.2726 365.546 14.2156 364.684 17.1485C364.431 18.0084 364.045 18.7861 363.559 19.4757C364.292 19.7673 364.839 20.207 365.192 20.7569C365.656 21.479 365.815 22.3339 365.869 23.3277L367.033 24.587C367.872 23.9472 368.661 23.2217 369.385 22.4206L365.916 20.6367L366.461 19.755L370.073 21.6116C370.729 20.7929 371.321 19.9061 371.834 18.9578C371.395 18.8833 370.931 18.8042 370.456 18.7225C368.865 18.4495 367.3 18.1758 367.3 18.1758L367.508 17.1823C367.508 17.1823 369.073 17.4546 370.662 17.7272C371.243 17.8271 371.801 17.922 372.313 18.0083C372.695 17.1902 373.022 16.3318 373.285 15.4373C373.334 15.2697 373.38 15.102 373.424 14.9347L367.786 15.3593L367.695 14.3506L373.664 13.9005C373.94 12.52 374.042 11.1543 373.985 9.83006L367.504 12.8189L367.003 11.9152L373.901 8.73499C373.736 7.25099 373.369 5.83145 372.823 4.51725L366.125 10.2531L365.365 9.51522L372.365 3.52205C371.698 2.20541 370.841 1.01567 369.821 0ZM359.895 14.1391C359.275 14.1391 358.698 14.4284 358.246 14.9583C357.794 15.4882 357.494 16.2525 357.494 17.1079C357.494 17.9632 357.794 18.7274 358.246 19.2573C358.698 19.7873 359.275 20.0783 359.895 20.0783C360.516 20.0783 361.091 19.7873 361.543 19.2574C361.995 18.7275 362.294 17.9633 362.294 17.108C362.294 16.2526 361.994 15.4884 361.543 14.9584C361.091 14.4285 360.516 14.1391 359.895 14.1391ZM362.248 20.1612C361.633 20.7645 360.809 21.1546 359.895 21.1546C359.007 21.1546 358.204 20.7864 357.594 20.2119C357.436 20.2476 357.289 20.2869 357.153 20.3304C356.472 20.5481 356.061 20.8428 355.761 21.2495C355.216 21.9893 355.076 23.2561 355.054 25H364.78C364.772 23.2912 364.712 22.0109 364.235 21.268C363.972 20.8591 363.606 20.5669 362.955 20.3439C362.749 20.2734 362.513 20.212 362.248 20.1612Z" fill="white"/>
<path d="M8.56934 76L12.6953 76.6348L15.5518 78.5391L17.4561 80.7607L18.4082 83.2998V86.1562L16.5039 89.9648L14.2822 91.8691L10.791 93.1387H7.2998L4.44336 92.1865L1.58691 89.6475L0 86.4736V82.665L1.26953 80.126L2.53906 78.5391L4.76074 76.9521L8.56934 76Z" fill="white"/>
</svg>
